<mxfile host="app.diagrams.net" modified="2024-02-27T01:16:46.957Z" agent="Mozilla/5.0 (Windows NT 10.0; Win64; x64) AppleWebKit/537.36 (KHTML, like Gecko) Chrome/122.0.0.0 Safari/537.36 Edg/122.0.0.0" version="23.1.3" etag="Ws-rBa2OIErp0AemMPmN" type="github">
  <diagram name="Page-1" id="Y6GeWv6Spt852EE2I8qR">
    <mxGraphModel>
      <root>
        <mxCell id="0" />
        <mxCell id="1" parent="0" />
      </root>
    </mxGraphModel>
  </diagram>
</mxfile>
